<?xml version="1.0" encoding="UTF-8" standalone="no"?>
<!-- Created with Inkscape (http://www.inkscape.org/) -->

<svg
   width="121.94086mm"
   height="22.185499mm"
   viewBox="0 0 121.94086 22.185499"
   version="1.1"
   id="svg1"
   xml:space="preserve"
   xmlns="http://www.w3.org/2000/svg"
   xmlns:svg="http://www.w3.org/2000/svg"><defs
     id="defs1" /><g
     id="layer1"
     transform="translate(-35.67605,-159.78254)"><path
       style="font-size:15.9576px;font-family:'Playfair Display';-inkscape-font-specification:'Playfair Display';fill:#117971;stroke-width:1.59736"
       d="m 74.181303,177.23705 q 0.299303,0.42147 0.618558,0.66732 0.329234,0.24586 0.858002,0.43025 v 0.36 q -1.456606,-0.0526 -3.192562,-0.0526 -1.346863,0 -2.593956,0.0526 v -0.36 q 0.578651,-0.0264 0.82807,-0.10537 0.249419,-0.079 0.249419,-0.24585 0,-0.14928 -0.219489,-0.45659 l -2.963096,-4.22342 q -0.27935,-0.39513 -0.488861,-0.59708 -0.199535,-0.21074 -0.409047,-0.28975 -0.209512,-0.0878 -0.528768,-0.11416 v 4.48685 q 0,0.6761 0.109745,0.98341 0.109744,0.30733 0.419023,0.42147 0.30928,0.11414 0.997676,0.14049 v 0.36 q -1.097444,-0.0526 -3.082819,-0.0526 -2.194886,0 -3.222491,0.0526 v -0.36 q 0.678419,-0.0264 0.987699,-0.14049 0.309279,-0.11414 0.419023,-0.42147 0.119719,-0.30731 0.119719,-0.98341 v -8.921 q 0,-0.6761 -0.119719,-0.98342 -0.109745,-0.30732 -0.419023,-0.42146 -0.30928,-0.11415 -0.987699,-0.14049 v -0.36 q 1.027605,0.0527 3.222491,0.0527 1.985375,0 3.082819,-0.0527 v 0.36 q -0.688396,0.0264 -0.997676,0.14049 -0.30928,0.11414 -0.419023,0.42146 -0.109745,0.30732 -0.109745,0.98342 v 4.04781 q 0.808117,-0.0439 1.486536,-0.43903 0.67842,-0.39512 1.536421,-1.2556 l 1.207188,-1.27317 q 0.927838,-0.96586 0.927838,-1.65952 0,-0.4478 -0.39907,-0.70245 -0.389094,-0.25463 -1.107421,-0.28097 v -0.34244 q 1.506491,0.0527 3.032935,0.0527 1.177257,0 1.915537,-0.0527 v 0.34244 q -1.616236,0.32488 -2.963097,1.72976 l -2.554049,2.66928 z m 7.412729,-6.12879 q 0,-0.74634 -0.409047,-1.17659 -0.39907,-0.43025 -1.257072,-0.43025 -0.399069,0 -0.798139,0.11415 -0.399071,0.10536 -0.658467,0.32488 0.568676,0.16682 0.887932,0.52683 0.319257,0.35122 0.319257,0.88683 0,0.36878 -0.209513,0.66733 -0.199535,0.28974 -0.578651,0.46536 -0.379118,0.16682 -0.867979,0.16682 -0.658465,0 -1.057535,-0.39512 -0.389094,-0.39512 -0.389094,-0.99219 0,-0.93074 1.137351,-1.51025 1.247093,-0.60585 3.112747,-0.60585 2.095118,0 2.98305,0.8078 0.429001,0.37756 0.578652,0.93952 0.149652,0.56195 0.149652,1.57171 v 4.89074 q 0,0.43903 0.0898,0.62342 0.09977,0.1756 0.339209,0.1756 0.329233,0 0.758233,-0.30731 l 0.209512,0.30731 q -0.468907,0.34244 -1.017629,0.50049 -0.548721,0.15806 -1.316931,0.15806 -1.037583,0 -1.496514,-0.40391 -0.458931,-0.4039 -0.458931,-1.05366 -0.498837,0.72878 -1.306955,1.09756 -0.808117,0.36001 -1.725979,0.36001 -1.16728,0 -1.87563,-0.53561 -0.698372,-0.54439 -0.698372,-1.51025 0,-0.93951 0.698372,-1.55415 0.698373,-0.61464 2.164956,-1.08878 0.159628,-0.0527 1.037583,-0.34244 0.877954,-0.29854 1.267047,-0.60587 0.389094,-0.30731 0.389094,-0.6761 z m 0,2.13367 q -0.129698,0.19316 -0.429001,0.4039 -0.289325,0.20195 -0.838047,0.50048 -0.648488,0.39512 -1.017629,0.89561 -0.369139,0.49171 -0.369139,1.22928 0,0.70244 0.349185,1.05366 0.349187,0.34244 0.917862,0.34244 0.808117,0 1.386769,-0.73757 z m 11.493223,-3.82831 v 0.36 h -2.414374 v 7.2527 q 0,0.53561 0.219488,0.76391 0.219489,0.21951 0.678419,0.21951 0.867979,0 1.386769,-1.08001 l 0.349187,0.16683 q -0.76821,1.85269 -2.793492,1.85269 -1.346862,0 -2.045234,-0.61463 -0.429002,-0.36879 -0.588629,-0.93073 -0.149651,-0.57074 -0.149651,-1.57171 v -6.05856 h -1.716002 v -0.36 h 1.716002 v -2.3883 q 1.686071,0 2.943143,-0.57952 v 2.96782 z m 4.878634,1.45756 q 0.389093,-0.76391 1.117396,-1.23804 0.73828,-0.48293 1.666125,-0.48293 0.61855,0 1.03758,0.23707 0.41902,0.23708 0.61856,0.61463 0.19953,0.36879 0.19953,0.79903 0,0.66732 -0.43898,1.08878 -0.43897,0.42146 -1.1573,0.42146 -0.69837,0 -1.10742,-0.30731 -0.39907,-0.3161 -0.39907,-0.84293 0,-0.86049 0.89791,-1.40488 -0.1297,-0.0264 -0.24942,-0.0264 -0.13967,0 -0.319258,0.044 -0.51879,0.0702 -0.947791,0.43902 -0.429001,0.36 -0.67842,0.86926 -0.239442,0.50928 -0.239442,0.99221 v 4.76781 q 0,0.83415 0.458931,1.15903 0.458931,0.31609 1.466583,0.31609 v 0.37757 q -2.554049,-0.0702 -3.252423,-0.0702 -0.648488,0 -2.923189,0.0702 v -0.37757 q 0.488861,0 0.76821,-0.11414 0.289326,-0.11414 0.409048,-0.39512 0.129697,-0.28098 0.129697,-0.78147 v -5.67221 q 0,-0.83414 -0.289326,-1.20293 -0.289326,-0.37755 -1.017629,-0.37755 v -0.37757 q 0.64849,0.0527 1.267048,0.0527 1.805793,0 2.98305,-0.24585 z m 8.380481,2.26537 q -0.0299,0.26342 -0.0299,0.84294 0,1.19414 0.37911,1.98439 0.37912,0.78146 0.97773,1.15025 0.60858,0.35999 1.29698,0.35999 1.68607,0 2.7037,-1.43999 l 0.35916,0.10536 q -0.25939,0.73756 -0.80812,1.37854 -0.53874,0.6322 -1.37679,1.0361 -0.82807,0.39512 -1.89558,0.39512 -1.40673,0 -2.47424,-0.52682 -1.05754,-0.52684 -1.65614,-1.59806 -0.58863,-1.08 -0.58863,-2.67806 0,-1.63317 0.63851,-2.74829 0.63851,-1.12391 1.76589,-1.68587 1.12737,-0.56194 2.60393,-0.56194 3.84106,0 3.84106,3.98634 z m 3.16263,-0.34244 q 0.0299,-1.40487 -0.32923,-2.33561 -0.34919,-0.93073 -1.06751,-0.93073 -0.72831,0 -1.21717,0.79902 -0.47889,0.79025 -0.58863,2.46732 z m 4.70903,2.4322 q 0.19954,1.55416 0.858,2.43221 0.66844,0.87805 1.88561,0.87805 0.59861,0 1.01763,-0.31611 0.429,-0.32487 0.429,-0.96584 0,-0.5005 -0.25939,-0.89562 -0.24942,-0.39512 -0.63852,-0.70244 -0.38909,-0.30731 -1.16728,-0.84292 -0.94779,-0.67611 -1.42668,-1.06245 -0.4689,-0.38634 -0.80811,-0.91318 -0.33921,-0.53561 -0.33921,-1.21171 0,-0.77267 0.47888,-1.33463 0.47889,-0.56195 1.287,-0.85171 0.80812,-0.28975 1.75591,-0.28975 0.77819,0 1.42668,0.16682 0.64849,0.16684 1.01763,0.38634 0.19953,0.12294 0.35916,0.12294 0.37912,0 0.47889,-0.65855 h 0.44895 q -0.0798,0.9044 -0.0798,3.16099 h -0.44895 q -0.17958,-1.17659 -0.80812,-1.97562 -0.61856,-0.8078 -1.80579,-0.8078 -0.60858,0 -0.99768,0.30731 -0.38909,0.30732 -0.38909,0.84293 0,0.60586 0.45893,1.04489 0.45893,0.43902 1.10742,0.84292 0.64849,0.4039 0.94779,0.60585 0.83805,0.55318 1.32691,0.96586 0.49884,0.41269 0.80812,0.93951 0.30928,0.51806 0.30928,1.19416 0,0.79024 -0.52877,1.39609 -0.51879,0.60587 -1.40672,0.93953 -0.88794,0.32487 -1.94547,0.32487 -1.08747,0 -1.89559,-0.37756 -0.60858,-0.2722 -0.95777,-0.37756 -0.0599,-0.0176 -0.0998,-0.0176 -0.32923,0 -0.47888,0.64098 h -0.44895 q 0.0798,-1.02732 0.0798,-3.59124 z m 12.73035,-4.40781 q 0.92783,-1.66829 3.35219,-1.66829 0.83804,0 1.36682,0.1756 0.53873,0.17561 0.87794,0.51805 0.33922,0.34244 0.48886,0.88683 0.14966,0.54439 0.14966,1.45757 v 4.83806 q 0,0.50049 0.12969,0.78147 0.12971,0.28097 0.40906,0.39512 0.27935,0.11414 0.7682,0.11414 v 0.37757 q -2.03525,-0.0702 -2.69372,-0.0702 -0.62853,0 -2.66379,0.0702 v -0.37757 q 0.41902,0 0.65846,-0.11414 0.23944,-0.11415 0.33921,-0.39512 0.10973,-0.28098 0.10973,-0.78147 v -5.59318 q 0,-0.73757 -0.27935,-1.11513 -0.26937,-0.37756 -0.9877,-0.37756 -0.55869,0 -1.0276,0.2722 -0.45894,0.27219 -0.72831,0.75512 -0.26936,0.47415 -0.26936,1.05367 v 5.00488 q 0,0.50049 0.10973,0.78147 0.10973,0.28097 0.34918,0.39512 0.23944,0.11414 0.6485,0.11414 v 0.37757 q -1.87564,-0.0702 -2.53411,-0.0702 -0.62853,0 -2.82342,0.0702 v -0.37757 q 0.48886,0 0.76821,-0.11414 0.28933,-0.11415 0.40905,-0.39512 0.1297,-0.28098 0.1297,-0.78147 v -5.67221 q 0,-0.83414 -0.28933,-1.20293 -0.28933,-0.37756 -1.01763,-0.37756 v -0.37756 q 0.64849,0.0527 1.26705,0.0527 1.80579,0 2.98305,-0.24586 z m 13.9475,0.28976 q 0,-0.74634 -0.40905,-1.17659 -0.39907,-0.43025 -1.25707,-0.43025 -0.39906,0 -0.79814,0.11415 -0.39907,0.10536 -0.65846,0.32488 0.56867,0.16682 0.88793,0.52683 0.31925,0.35122 0.31925,0.88683 0,0.36878 -0.2095,0.66733 -0.19954,0.28974 -0.57866,0.46536 -0.37912,0.16682 -0.86798,0.16682 -0.65846,0 -1.05754,-0.39512 -0.38909,-0.39512 -0.38909,-0.99219 0,-0.93074 1.13735,-1.51025 1.24709,-0.60585 3.11275,-0.60585 2.09512,0 2.98305,0.8078 0.429,0.37756 0.57865,0.93952 0.14966,0.56195 0.14966,1.57171 v 4.89074 q 0,0.43903 0.0897,0.62342 0.0998,0.1756 0.33922,0.1756 0.32923,0 0.75823,-0.30731 l 0.20951,0.30731 q -0.4689,0.34244 -1.01762,0.50049 -0.54872,0.15806 -1.31694,0.15806 -1.03758,0 -1.49651,-0.40391 -0.45893,-0.4039 -0.45893,-1.05366 -0.49884,0.72878 -1.30696,1.09756 -0.80811,0.36001 -1.72598,0.36001 -1.16728,0 -1.87563,-0.53561 -0.69837,-0.54439 -0.69837,-1.51025 0,-0.93951 0.69837,-1.55415 0.69838,-0.61464 2.16496,-1.08878 0.15963,-0.0527 1.03758,-0.34244 0.87796,-0.29854 1.26705,-0.60587 0.3891,-0.30731 0.3891,-0.6761 z m 0,2.13367 q -0.1297,0.19316 -0.429,0.4039 -0.28932,0.20195 -0.83805,0.50048 -0.64849,0.39512 -1.01762,0.89561 -0.36915,0.49171 -0.36915,1.22928 0,0.70244 0.34919,1.05366 0.34919,0.34244 0.91786,0.34244 0.80811,0 1.38677,-0.73757 z m 9.17861,-2.42343 q 0.92785,-1.66829 3.3522,-1.66829 0.83805,0 1.36681,0.1756 0.53875,0.17561 0.87796,0.51805 0.33921,0.34244 0.48886,0.88683 0.14966,0.54439 0.14966,1.45757 v 4.83806 q 0,0.50049 0.12969,0.78147 0.12969,0.28097 0.40904,0.39512 0.27935,0.11414 0.76821,0.11414 v 0.37757 q -2.03526,-0.0702 -2.69371,-0.0702 -0.62855,0 -2.6638,0.0702 v -0.37757 q 0.41902,0 0.65846,-0.11414 0.23945,-0.11415 0.33922,-0.39512 0.10973,-0.28098 0.10973,-0.78147 v -5.59318 q 0,-0.73757 -0.27936,-1.11513 -0.26936,-0.37756 -0.98769,-0.37756 -0.5587,0 -1.02761,0.2722 -0.45893,0.27219 -0.7283,0.75512 -0.26938,0.47415 -0.26938,1.05367 v 5.00488 q 0,0.50049 0.10973,0.78147 0.10974,0.28097 0.34919,0.39512 0.23945,0.11414 0.64849,0.11414 v 0.37757 q -1.87563,-0.0702 -2.53409,-0.0702 -0.62854,0 -2.82342,0.0702 v -0.37757 q 0.48885,0 0.76821,-0.11414 0.28932,-0.11415 0.40904,-0.39512 0.1297,-0.28098 0.1297,-0.78147 v -5.67221 q 0,-0.83414 -0.28933,-1.20293 -0.28932,-0.37756 -1.01762,-0.37756 v -0.37756 q 0.64848,0.0527 1.26705,0.0527 1.80578,0 2.98304,-0.24586 z"
       id="text1"
       aria-label="Katresnan" /><g
       id="g27-4-5"
       transform="matrix(1.69226,0,0,1.69226,-85.497769,-38.038616)"
       style="fill:#117971;fill-opacity:1"><g
         id="g7-7-3"
         style="fill:#117971;fill-opacity:1"
         transform="matrix(3.0434538,0,0,3.0434538,-146.32095,-265.6645)"><path
           id="path1-6-8"
           style="fill:#117971;fill-opacity:1;stroke-width:0.236949"
           d="m 72.442873,126.53402 c -0.494324,-0.002 -0.930647,0.28594 -0.821139,1.0291 0.150634,1.02224 2.016415,2.44447 2.016415,2.44447 v -2.59036 c 0,-0.50673 -0.635042,-0.88112 -1.195276,-0.88321 z m 0.113171,0.43932 c 0.333507,0.002 0.711585,0.25063 0.711585,0.58812 v 1.72538 c 0,0 -1.110772,-0.94715 -1.200444,-1.62798 -0.06519,-0.49496 0.194589,-0.68674 0.488859,-0.68552 z" /></g><path
         id="path1-7-3-8"
         style="fill:#117971;fill-opacity:1;stroke-width:0.721143"
         d="m 82.11375,119.43594 c 1.504453,-0.006 2.832382,0.87025 2.499099,3.13202 -0.458448,3.11114 -6.136866,7.43963 -6.136866,7.43963 v -7.88364 c 0,-1.54221 1.932721,-2.68165 3.637767,-2.68801 z m -0.34443,1.33705 c -1.015013,0.006 -2.165676,0.76278 -2.165676,1.78992 v 5.25111 c 0,0 3.380583,-2.88261 3.653496,-4.95468 0.198402,-1.50639 -0.592223,-2.09006 -1.48782,-2.08635 z" /></g><path
       id="path3-1-3"
       style="fill:#e8879a;fill-opacity:1;stroke-width:0.696935"
       d="m 43.883698,170.40629 a 3.118238,5.5446459 88.193744 0 0 -2.533049,1.97133 3.118238,5.5446459 88.193744 0 0 4.021753,3.699 3.118238,5.5446459 88.193744 0 0 6.729221,-2.40688 3.118238,5.5446459 88.193744 0 0 -4.02219,-3.70035 3.118238,5.5446459 88.193744 0 0 -4.195689,0.43727 z m 0.689659,1.18932 a 3.716793,1.7001828 1.3876938 0 1 3.700094,-0.0887 3.716793,1.7001828 1.3876938 0 1 1.831034,2.28916 3.716793,1.7001828 1.3876938 0 1 -4.925771,0.74432 3.716793,1.7001828 1.3876938 0 1 -1.831457,-2.29045 3.716793,1.7001828 1.3876938 0 1 1.226063,-0.65434 z" /><g
       id="g28-7-1"
       transform="matrix(1.69226,0,0,1.69226,-85.924768,-38.038616)"
       style="fill:#117971;fill-opacity:1"><ellipse
         style="fill:#117971;fill-opacity:1;stroke-width:0.981229"
         id="path7-5-8"
         cx="74.399666"
         cy="117.8887"
         rx="1.0144856"
         ry="0.99109954" /><ellipse
         style="fill:#117971;fill-opacity:1;stroke-width:0.981229"
         id="path7-1-9-9"
         cx="82.374321"
         cy="117.8887"
         rx="1.0144856"
         ry="0.99109954" /></g><rect
       style="fill:#117971;fill-opacity:1;stroke:none;stroke-width:9.20026"
       id="rect8-6-6"
       width="1.9072305"
       height="1.9801555"
       x="44.241848"
       y="169.87407" /><rect
       style="fill:#117971;fill-opacity:1;stroke:none;stroke-width:9.20742"
       id="rect8-7-2-4"
       width="1.9102042"
       height="1.9801555"
       x="47.303246"
       y="169.84743" /></g></svg>
